<svg width="22" height="16" viewBox="0 0 22 16" fill="none" xmlns="http://www.w3.org/2000/svg">
<path d="M1.40002 14.2168C2.49867 12.3843 4.90654 11.1301 8.66314 11.1301C12.4197 11.1301 14.8276 12.3843 15.9263 14.2168M16.6213 9.74056C18.6106 10.7352 19.6053 11.7299 20.6 13.7193M14.5522 2.1376C15.4883 2.64115 16.1246 3.62991 16.1246 4.7673C16.1246 5.87183 15.5246 6.8362 14.6326 7.35216M11.6472 4.76727C11.6472 6.41533 10.3112 7.75134 8.66314 7.75134C7.01509 7.75134 5.67907 6.41533 5.67907 4.76727C5.67907 3.11922 7.01509 1.7832 8.66314 1.7832C10.3112 1.7832 11.6472 3.11922 11.6472 4.76727Z" stroke="#365FFF" stroke-width="2" stroke-linecap="round"/>
</svg>
