<svg width="50" height="50" viewBox="0 0 50 50" fill="none" xmlns="http://www.w3.org/2000/svg">
<mask id="mask0_105_308" style="mask-type:luminance" maskUnits="userSpaceOnUse" x="0" y="0" width="50" height="50">
<path d="M50 25C50 11.1929 38.8071 0 25 0C11.1929 0 0 11.1929 0 25C0 38.8071 11.1929 50 25 50C38.8071 50 50 38.8071 50 25Z" fill="white"/>
</mask>
<g mask="url(#mask0_105_308)">
<path d="M50 25C50 11.1929 38.8071 0 25 0C11.1929 0 0 11.1929 0 25C0 38.8071 11.1929 50 25 50C38.8071 50 50 38.8071 50 25Z" fill="#1C65F3" fill-opacity="0.15"/>
<path d="M25 26C28.866 26 32 22.866 32 19C32 15.134 28.866 12 25 12C21.134 12 18 15.134 18 19C18 22.866 21.134 26 25 26Z" fill="#C0C0C0"/>
<path d="M25.5 64C35.165 64 43 56.165 43 46.5C43 36.835 35.165 29 25.5 29C15.835 29 8 36.835 8 46.5C8 56.165 15.835 64 25.5 64Z" fill="#C0C0C0"/>
</g>
</svg>
