<svg width="26" height="25" viewBox="0 0 26 25" fill="none" xmlns="http://www.w3.org/2000/svg">
<path d="M2.17487 14.3706L0.903688 13.1319C0.365438 12.6074 0.365438 11.7593 0.903688 11.2404L12.0294 0.393371C12.5677 -0.131124 13.438 -0.131124 13.9706 0.393371L25.0963 11.2348C25.6346 11.7593 25.6346 12.6074 25.0963 13.1263L23.8251 14.365C23.2812 14.8951 22.3936 14.8839 21.8611 14.3427L15.2933 7.62471V23.6609C15.2933 24.403 14.6806 25 13.919 25H12.0867C11.3251 25 10.7124 24.403 10.7124 23.6609V7.62471L4.13891 14.3483C3.60639 14.8951 2.71885 14.9063 2.17487 14.3706Z" fill="#1D218B"/>
</svg>
