<svg width="135" height="52" viewBox="0 0 135 52" fill="none" xmlns="http://www.w3.org/2000/svg">
<g filter="url(#filter0_d_67_15)">
<rect x="4" y="0.238525" width="126.797" height="43.5229" rx="2" fill="white" shape-rendering="crispEdges"/>
<rect x="4" y="0.238525" width="126.797" height="43.5229" rx="2" fill="#1C65F3" fill-opacity="0.1" shape-rendering="crispEdges"/>
<path d="M15.6796 29.7173L15.1086 18.8232L17.4119 18.7025L17.6475 23.1974L22.3232 22.9523L22.0877 18.4574L24.3857 18.337L24.9566 29.2311L22.6586 29.3516L22.4228 24.8514L17.747 25.0964L17.9829 29.5966L15.6796 29.7173ZM32.1469 29.009C31.6256 29.0363 31.1563 28.9702 30.739 28.8107C30.3216 28.6477 29.9846 28.3933 29.7283 28.0476C29.4752 27.6982 29.3346 27.2539 29.3064 26.7149C29.2826 26.261 29.3459 25.8754 29.4964 25.5581C29.6469 25.2408 29.8609 24.9807 30.1383 24.7777C30.4157 24.5747 30.7345 24.4158 31.0948 24.3009C31.4586 24.1858 31.8416 24.0981 32.2438 24.0379C32.7164 23.9634 33.097 23.8972 33.3855 23.8394C33.6739 23.7781 33.8814 23.6996 34.008 23.6041C34.1345 23.5086 34.1933 23.3739 34.1841 23.2002L34.1825 23.1682C34.1648 22.8314 34.0448 22.5763 33.8223 22.403C33.6034 22.2296 33.3007 22.153 32.9142 22.1732C32.5064 22.1946 32.1866 22.3021 31.9549 22.4956C31.7231 22.6855 31.5752 22.9173 31.5113 23.1909L29.4066 23.1305C29.4869 22.6285 29.6737 22.1884 29.9668 21.8103C30.2597 21.4287 30.6475 21.1274 31.1302 20.9066C31.6163 20.682 32.1856 20.5526 32.8381 20.5184C33.292 20.4946 33.7292 20.525 34.1497 20.6096C34.5738 20.6941 34.953 20.8396 35.2874 21.0461C35.6254 21.2524 35.8975 21.5262 36.1039 21.8674C36.3101 22.2051 36.4259 22.6168 36.4513 23.1027L36.7401 28.6136L34.5911 28.7262L34.5317 27.5932L34.4679 27.5965C34.3501 27.8587 34.1863 28.0931 33.9767 28.2997C33.7668 28.5027 33.5105 28.6673 33.2078 28.7934C32.9048 28.9159 32.5512 28.9878 32.1469 29.009ZM32.714 27.4111C33.0473 27.3936 33.3382 27.3126 33.5867 27.168C33.8349 27.0198 34.0258 26.8285 34.1593 26.5939C34.2928 26.3593 34.352 26.0984 34.337 25.8112L34.2915 24.9441C34.223 24.9939 34.1277 25.0416 34.0057 25.0871C33.887 25.1289 33.7522 25.1697 33.6014 25.2096C33.4504 25.246 33.2993 25.2806 33.1481 25.3134C32.9967 25.3427 32.8594 25.3694 32.7362 25.3936C32.4723 25.4466 32.2433 25.5208 32.0492 25.6163C31.855 25.7119 31.7068 25.8352 31.6045 25.9864C31.502 26.134 31.4563 26.3142 31.4675 26.5269C31.4836 26.8355 31.6077 27.0654 31.8397 27.2169C32.075 27.3646 32.3664 27.4293 32.714 27.4111ZM43.5126 23.5221L43.7602 28.2457L41.4941 28.3644L41.0659 20.1938L43.2256 20.0807L43.3011 21.5222L43.3969 21.5172C43.5528 21.0325 43.8363 20.6407 44.2474 20.3418C44.6583 20.0394 45.1669 19.8722 45.7733 19.8405C46.3407 19.8107 46.8419 19.9089 47.2769 20.135C47.712 20.3612 48.0586 20.6986 48.3168 21.1473C48.5748 21.5925 48.7205 22.1325 48.7537 22.7673L49.0264 27.9697L46.7603 28.0885L46.5088 23.2903C46.4862 22.7901 46.3381 22.4067 46.0645 22.1402C45.7908 21.87 45.4269 21.7468 44.973 21.7706C44.668 21.7866 44.402 21.8663 44.1748 22.0098C43.9512 22.1531 43.7803 22.3541 43.6623 22.6128C43.5477 22.8677 43.4978 23.1708 43.5126 23.5221ZM56.826 27.6943C56.2054 27.7268 55.635 27.5967 55.1147 27.3039C54.5977 27.0074 54.1757 26.5548 53.8487 25.9461C53.525 25.3336 53.3393 24.5717 53.2915 23.6603C53.2424 22.7241 53.3524 21.9378 53.6213 21.3014C53.89 20.6615 54.2663 20.1741 54.7501 19.8394C55.2374 19.5009 55.7806 19.316 56.3799 19.2846C56.8374 19.2606 57.2227 19.3186 57.5359 19.4587C57.8524 19.595 58.1107 19.7735 58.3107 19.9942C58.5141 20.2111 58.6712 20.4269 58.782 20.6415L58.8512 20.6379L58.6365 16.542L60.8973 16.4235L61.4682 27.3176L59.234 27.4347L59.1655 26.1262L59.0697 26.1312C58.9752 26.3637 58.8363 26.5968 58.653 26.8304C58.473 27.0603 58.2326 27.2561 57.9316 27.4176C57.6343 27.579 57.2657 27.6712 56.826 27.6943ZM57.4496 25.8534C57.8149 25.8342 58.1182 25.7188 58.3596 25.507C58.6043 25.2915 58.7846 24.9993 58.9004 24.6305C59.0197 24.2616 59.0667 23.8342 59.0412 23.3483C59.0158 22.8625 58.9263 22.444 58.7727 22.0929C58.6192 21.7418 58.4097 21.4754 58.1441 21.2937C57.8786 21.1121 57.5631 21.0308 57.1979 21.0499C56.8255 21.0695 56.517 21.187 56.2722 21.4025C56.0275 21.618 55.8489 21.9083 55.7365 22.2733C55.624 22.6384 55.5802 23.0567 55.6049 23.5284C55.6298 24.0036 55.7174 24.4204 55.8678 24.7788C56.0215 25.1334 56.2296 25.407 56.4922 25.5995C56.7581 25.7883 57.0773 25.8729 57.4496 25.8534ZM71.1363 21.4236L71.2305 23.2216L66.2622 23.4819L66.168 21.684L71.1363 21.4236ZM86.1129 20.564C86.1752 21.752 86.003 22.7745 85.5963 23.6315C85.1931 24.4883 84.6165 25.1568 83.8665 25.6371C83.1198 26.1136 82.2659 26.377 81.3049 26.4274C80.3367 26.4781 79.4564 26.3038 78.6638 25.9044C77.8712 25.505 77.2297 24.9003 76.7392 24.0903C76.2487 23.2804 75.9724 22.2832 75.9103 21.0987C75.848 19.9107 76.0185 18.8883 76.4216 18.0315C76.8248 17.1748 77.3997 16.5081 78.1464 16.0316C78.8929 15.5515 79.7502 15.2861 80.7183 15.2354C81.6794 15.185 82.5562 15.3595 83.3488 15.7589C84.1447 16.1546 84.7879 16.7574 85.2784 17.5674C85.7725 18.3772 86.0507 19.376 86.1129 20.564ZM83.7777 20.6864C83.7374 19.9169 83.5881 19.274 83.3299 18.7576C83.0752 18.2411 82.7333 17.8572 82.3041 17.6059C81.8749 17.3546 81.3819 17.2435 80.8251 17.2727C80.2683 17.3019 79.7897 17.4639 79.3891 17.7587C78.9884 18.0535 78.6867 18.4711 78.4839 19.0116C78.2847 19.5519 78.2052 20.2068 78.2455 20.9764C78.2858 21.7459 78.4333 22.3889 78.688 22.9054C78.9462 23.4217 79.2899 23.8055 79.7191 24.0569C80.1483 24.3082 80.6413 24.4192 81.1981 24.3901C81.7549 24.3609 82.2336 24.1989 82.6342 23.9041C83.0348 23.6093 83.3347 23.1917 83.534 22.6514C83.7368 22.111 83.818 21.456 83.7777 20.6864ZM98.2471 17.1971L95.8188 25.5174L93.2655 25.6512L89.9807 17.6303L92.3745 17.5049L94.3777 23.262L94.4629 23.2575L95.848 17.3228L98.2471 17.1971ZM106.299 25.1282C105.459 25.1722 104.727 25.0399 104.102 24.7312C103.481 24.4188 102.991 23.9573 102.632 23.3468C102.273 22.7326 102.071 21.9947 102.026 21.1329C101.982 20.2925 102.106 19.5463 102.399 18.8944C102.692 18.2425 103.125 17.7238 103.699 17.3381C104.276 16.9522 104.965 16.7383 105.767 16.6963C106.306 16.6681 106.812 16.7287 107.286 16.8781C107.763 17.0238 108.184 17.2595 108.55 17.5853C108.919 17.9109 109.215 18.3292 109.437 18.8403C109.659 19.3478 109.789 19.9491 109.825 20.6442L109.858 21.2665L102.958 21.6281L102.885 20.2238L107.651 19.974C107.634 19.6478 107.548 19.3625 107.393 19.1181C107.238 18.8738 107.03 18.6872 106.771 18.5586C106.515 18.4262 106.223 18.3687 105.893 18.3859C105.549 18.404 105.248 18.4997 104.99 18.6733C104.736 18.8431 104.542 19.0648 104.407 19.3386C104.271 19.6088 104.21 19.9054 104.224 20.2283L104.294 21.5635C104.315 21.9677 104.408 22.3131 104.572 22.5997C104.74 22.886 104.966 23.1017 105.251 23.2468C105.536 23.3919 105.869 23.4545 106.248 23.4346C106.5 23.4214 106.728 23.3739 106.934 23.292C107.14 23.2101 107.313 23.0943 107.455 22.9447C107.596 22.795 107.7 22.6153 107.768 22.4055L109.871 22.434C109.791 22.9432 109.596 23.3943 109.286 23.7875C108.979 24.177 108.572 24.4899 108.065 24.7262C107.562 24.9589 106.973 25.0928 106.299 25.1282ZM114.516 24.5375L114.088 16.3669L116.285 16.2518L116.359 17.6774L116.444 17.6729C116.567 17.158 116.797 16.7619 117.134 16.4846C117.472 16.2038 117.869 16.0514 118.327 16.0274C118.44 16.0215 118.563 16.0222 118.695 16.0295C118.827 16.0368 118.943 16.0502 119.043 16.0699L119.149 18.0806C119.041 18.0543 118.892 18.0336 118.703 18.0186C118.514 18.0037 118.341 18.0003 118.185 18.0084C117.852 18.0259 117.558 18.1142 117.303 18.2734C117.051 18.4288 116.856 18.6382 116.717 18.9015C116.581 19.1646 116.522 19.4629 116.54 19.7962L116.782 24.4188L114.516 24.5375Z" fill="#1C65F3"/>
<path d="M15.6796 29.7173L15.1086 18.8232L17.4119 18.7025L17.6475 23.1974L22.3232 22.9523L22.0877 18.4574L24.3857 18.337L24.9566 29.2311L22.6586 29.3516L22.4228 24.8514L17.747 25.0964L17.9829 29.5966L15.6796 29.7173ZM32.1469 29.009C31.6256 29.0363 31.1563 28.9702 30.739 28.8107C30.3216 28.6477 29.9846 28.3933 29.7283 28.0476C29.4752 27.6982 29.3346 27.2539 29.3064 26.7149C29.2826 26.261 29.3459 25.8754 29.4964 25.5581C29.6469 25.2408 29.8609 24.9807 30.1383 24.7777C30.4157 24.5747 30.7345 24.4158 31.0948 24.3009C31.4586 24.1858 31.8416 24.0981 32.2438 24.0379C32.7164 23.9634 33.097 23.8972 33.3855 23.8394C33.6739 23.7781 33.8814 23.6996 34.008 23.6041C34.1345 23.5086 34.1933 23.3739 34.1841 23.2002L34.1825 23.1682C34.1648 22.8314 34.0448 22.5763 33.8223 22.403C33.6034 22.2296 33.3007 22.153 32.9142 22.1732C32.5064 22.1946 32.1866 22.3021 31.9549 22.4956C31.7231 22.6855 31.5752 22.9173 31.5113 23.1909L29.4066 23.1305C29.4869 22.6285 29.6737 22.1884 29.9668 21.8103C30.2597 21.4287 30.6475 21.1274 31.1302 20.9066C31.6163 20.682 32.1856 20.5526 32.8381 20.5184C33.292 20.4946 33.7292 20.525 34.1497 20.6096C34.5738 20.6941 34.953 20.8396 35.2874 21.0461C35.6254 21.2524 35.8975 21.5262 36.1039 21.8674C36.3101 22.2051 36.4259 22.6168 36.4513 23.1027L36.7401 28.6136L34.5911 28.7262L34.5317 27.5932L34.4679 27.5965C34.3501 27.8587 34.1863 28.0931 33.9767 28.2997C33.7668 28.5027 33.5105 28.6673 33.2078 28.7934C32.9048 28.9159 32.5512 28.9878 32.1469 29.009ZM32.714 27.4111C33.0473 27.3936 33.3382 27.3126 33.5867 27.168C33.8349 27.0198 34.0258 26.8285 34.1593 26.5939C34.2928 26.3593 34.352 26.0984 34.337 25.8112L34.2915 24.9441C34.223 24.9939 34.1277 25.0416 34.0057 25.0871C33.887 25.1289 33.7522 25.1697 33.6014 25.2096C33.4504 25.246 33.2993 25.2806 33.1481 25.3134C32.9967 25.3427 32.8594 25.3694 32.7362 25.3936C32.4723 25.4466 32.2433 25.5208 32.0492 25.6163C31.855 25.7119 31.7068 25.8352 31.6045 25.9864C31.502 26.134 31.4563 26.3142 31.4675 26.5269C31.4836 26.8355 31.6077 27.0654 31.8397 27.2169C32.075 27.3646 32.3664 27.4293 32.714 27.4111ZM43.5126 23.5221L43.7602 28.2457L41.4941 28.3644L41.0659 20.1938L43.2256 20.0807L43.3011 21.5222L43.3969 21.5172C43.5528 21.0325 43.8363 20.6407 44.2474 20.3418C44.6583 20.0394 45.1669 19.8722 45.7733 19.8405C46.3407 19.8107 46.8419 19.9089 47.2769 20.135C47.712 20.3612 48.0586 20.6986 48.3168 21.1473C48.5748 21.5925 48.7205 22.1325 48.7537 22.7673L49.0264 27.9697L46.7603 28.0885L46.5088 23.2903C46.4862 22.7901 46.3381 22.4067 46.0645 22.1402C45.7908 21.87 45.4269 21.7468 44.973 21.7706C44.668 21.7866 44.402 21.8663 44.1748 22.0098C43.9512 22.1531 43.7803 22.3541 43.6623 22.6128C43.5477 22.8677 43.4978 23.1708 43.5126 23.5221ZM56.826 27.6943C56.2054 27.7268 55.635 27.5967 55.1147 27.3039C54.5977 27.0074 54.1757 26.5548 53.8487 25.9461C53.525 25.3336 53.3393 24.5717 53.2915 23.6603C53.2424 22.7241 53.3524 21.9378 53.6213 21.3014C53.89 20.6615 54.2663 20.1741 54.7501 19.8394C55.2374 19.5009 55.7806 19.316 56.3799 19.2846C56.8374 19.2606 57.2227 19.3186 57.5359 19.4587C57.8524 19.595 58.1107 19.7735 58.3107 19.9942C58.5141 20.2111 58.6712 20.4269 58.782 20.6415L58.8512 20.6379L58.6365 16.542L60.8973 16.4235L61.4682 27.3176L59.234 27.4347L59.1655 26.1262L59.0697 26.1312C58.9752 26.3637 58.8363 26.5968 58.653 26.8304C58.473 27.0603 58.2326 27.2561 57.9316 27.4176C57.6343 27.579 57.2657 27.6712 56.826 27.6943ZM57.4496 25.8534C57.8149 25.8342 58.1182 25.7188 58.3596 25.507C58.6043 25.2915 58.7846 24.9993 58.9004 24.6305C59.0197 24.2616 59.0667 23.8342 59.0412 23.3483C59.0158 22.8625 58.9263 22.444 58.7727 22.0929C58.6192 21.7418 58.4097 21.4754 58.1441 21.2937C57.8786 21.1121 57.5631 21.0308 57.1979 21.0499C56.8255 21.0695 56.517 21.187 56.2722 21.4025C56.0275 21.618 55.8489 21.9083 55.7365 22.2733C55.624 22.6384 55.5802 23.0567 55.6049 23.5284C55.6298 24.0036 55.7174 24.4204 55.8678 24.7788C56.0215 25.1334 56.2296 25.407 56.4922 25.5995C56.7581 25.7883 57.0773 25.8729 57.4496 25.8534ZM71.1363 21.4236L71.2305 23.2216L66.2622 23.4819L66.168 21.684L71.1363 21.4236ZM86.1129 20.564C86.1752 21.752 86.003 22.7745 85.5963 23.6315C85.1931 24.4883 84.6165 25.1568 83.8665 25.6371C83.1198 26.1136 82.2659 26.377 81.3049 26.4274C80.3367 26.4781 79.4564 26.3038 78.6638 25.9044C77.8712 25.505 77.2297 24.9003 76.7392 24.0903C76.2487 23.2804 75.9724 22.2832 75.9103 21.0987C75.848 19.9107 76.0185 18.8883 76.4216 18.0315C76.8248 17.1748 77.3997 16.5081 78.1464 16.0316C78.8929 15.5515 79.7502 15.2861 80.7183 15.2354C81.6794 15.185 82.5562 15.3595 83.3488 15.7589C84.1447 16.1546 84.7879 16.7574 85.2784 17.5674C85.7725 18.3772 86.0507 19.376 86.1129 20.564ZM83.7777 20.6864C83.7374 19.9169 83.5881 19.274 83.3299 18.7576C83.0752 18.2411 82.7333 17.8572 82.3041 17.6059C81.8749 17.3546 81.3819 17.2435 80.8251 17.2727C80.2683 17.3019 79.7897 17.4639 79.3891 17.7587C78.9884 18.0535 78.6867 18.4711 78.4839 19.0116C78.2847 19.5519 78.2052 20.2068 78.2455 20.9764C78.2858 21.7459 78.4333 22.3889 78.688 22.9054C78.9462 23.4217 79.2899 23.8055 79.7191 24.0569C80.1483 24.3082 80.6413 24.4192 81.1981 24.3901C81.7549 24.3609 82.2336 24.1989 82.6342 23.9041C83.0348 23.6093 83.3347 23.1917 83.534 22.6514C83.7368 22.111 83.818 21.456 83.7777 20.6864ZM98.2471 17.1971L95.8188 25.5174L93.2655 25.6512L89.9807 17.6303L92.3745 17.5049L94.3777 23.262L94.4629 23.2575L95.848 17.3228L98.2471 17.1971ZM106.299 25.1282C105.459 25.1722 104.727 25.0399 104.102 24.7312C103.481 24.4188 102.991 23.9573 102.632 23.3468C102.273 22.7326 102.071 21.9947 102.026 21.1329C101.982 20.2925 102.106 19.5463 102.399 18.8944C102.692 18.2425 103.125 17.7238 103.699 17.3381C104.276 16.9522 104.965 16.7383 105.767 16.6963C106.306 16.6681 106.812 16.7287 107.286 16.8781C107.763 17.0238 108.184 17.2595 108.55 17.5853C108.919 17.9109 109.215 18.3292 109.437 18.8403C109.659 19.3478 109.789 19.9491 109.825 20.6442L109.858 21.2665L102.958 21.6281L102.885 20.2238L107.651 19.974C107.634 19.6478 107.548 19.3625 107.393 19.1181C107.238 18.8738 107.03 18.6872 106.771 18.5586C106.515 18.4262 106.223 18.3687 105.893 18.3859C105.549 18.404 105.248 18.4997 104.99 18.6733C104.736 18.8431 104.542 19.0648 104.407 19.3386C104.271 19.6088 104.21 19.9054 104.224 20.2283L104.294 21.5635C104.315 21.9677 104.408 22.3131 104.572 22.5997C104.74 22.886 104.966 23.1017 105.251 23.2468C105.536 23.3919 105.869 23.4545 106.248 23.4346C106.5 23.4214 106.728 23.3739 106.934 23.292C107.14 23.2101 107.313 23.0943 107.455 22.9447C107.596 22.795 107.7 22.6153 107.768 22.4055L109.871 22.434C109.791 22.9432 109.596 23.3943 109.286 23.7875C108.979 24.177 108.572 24.4899 108.065 24.7262C107.562 24.9589 106.973 25.0928 106.299 25.1282ZM114.516 24.5375L114.088 16.3669L116.285 16.2518L116.359 17.6774L116.444 17.6729C116.567 17.158 116.797 16.7619 117.134 16.4846C117.472 16.2038 117.869 16.0514 118.327 16.0274C118.44 16.0215 118.563 16.0222 118.695 16.0295C118.827 16.0368 118.943 16.0502 119.043 16.0699L119.149 18.0806C119.041 18.0543 118.892 18.0336 118.703 18.0186C118.514 18.0037 118.341 18.0003 118.185 18.0084C117.852 18.0259 117.558 18.1142 117.303 18.2734C117.051 18.4288 116.856 18.6382 116.717 18.9015C116.581 19.1646 116.522 19.4629 116.54 19.7962L116.782 24.4188L114.516 24.5375Z" fill="black" fill-opacity="0.2"/>
<path d="M14.8888 32.7458L119.89 27.2429L119.944 28.2642L14.9423 33.7671L14.8888 32.7458Z" fill="#1C65F3"/>
<path d="M14.8888 32.7458L119.89 27.2429L119.944 28.2642L14.9423 33.7671L14.8888 32.7458Z" fill="black" fill-opacity="0.2"/>
<path d="M15.6796 29.7173L14.6809 29.7697L14.7333 30.7683L15.7319 30.716L15.6796 29.7173ZM15.1086 18.8232L15.0563 17.8246L14.0577 17.8769L14.11 18.8755L15.1086 18.8232ZM17.4119 18.7025L18.4106 18.6501L18.3582 17.6515L17.3596 17.7038L17.4119 18.7025ZM17.6475 23.1974L16.6489 23.2497L16.7012 24.2483L17.6998 24.196L17.6475 23.1974ZM22.3232 22.9523L22.3756 23.951L23.3742 23.8986L23.3219 22.9L22.3232 22.9523ZM22.0877 18.4574L22.0353 17.4588L21.0367 17.5111L21.089 18.5098L22.0877 18.4574ZM24.3857 18.337L25.3843 18.2847L25.332 17.286L24.3333 17.3384L24.3857 18.337ZM24.9566 29.2311L25.0089 30.2298L26.0076 30.1774L25.9552 29.1788L24.9566 29.2311ZM22.6586 29.3516L21.66 29.4039L21.7123 30.4025L22.711 30.3502L22.6586 29.3516ZM22.4228 24.8514L23.4214 24.799L23.3691 23.8004L22.3704 23.8527L22.4228 24.8514ZM17.747 25.0964L17.6947 24.0978L16.696 24.1501L16.7484 25.1487L17.747 25.0964ZM17.9829 29.5966L18.0352 30.5952L19.0338 30.5429L18.9815 29.5443L17.9829 29.5966ZM16.6782 29.665L16.1072 18.7708L14.11 18.8755L14.6809 29.7697L16.6782 29.665ZM15.161 19.8218L17.4643 19.7011L17.3596 17.7038L15.0563 17.8246L15.161 19.8218ZM16.4133 18.7548L16.6489 23.2497L18.6461 23.145L18.4106 18.6501L16.4133 18.7548ZM17.6998 24.196L22.3756 23.951L22.2709 21.9537L17.5952 22.1987L17.6998 24.196ZM23.3219 22.9L23.0863 18.4051L21.089 18.5098L21.3246 23.0047L23.3219 22.9ZM22.14 19.4561L24.438 19.3356L24.3333 17.3384L22.0353 17.4588L22.14 19.4561ZM23.387 18.3893L23.958 29.2835L25.9552 29.1788L25.3843 18.2847L23.387 18.3893ZM24.9043 28.2325L22.6063 28.3529L22.711 30.3502L25.0089 30.2298L24.9043 28.2325ZM23.6572 29.2992L23.4214 24.799L21.4241 24.9037L21.66 29.4039L23.6572 29.2992ZM22.3704 23.8527L17.6947 24.0978L17.7993 26.095L22.4751 25.85L22.3704 23.8527ZM16.7484 25.1487L16.9842 29.6489L18.9815 29.5443L18.7456 25.0441L16.7484 25.1487ZM17.9305 28.598L15.6272 28.7187L15.7319 30.716L18.0352 30.5952L17.9305 28.598ZM30.739 28.8107L30.3753 29.7423L30.382 29.7448L30.739 28.8107ZM29.7283 28.0476L28.9182 28.6341L28.925 28.6433L29.7283 28.0476ZM29.4964 25.5581L28.593 25.1295L29.4964 25.5581ZM30.1383 24.7777L29.5477 23.9707L30.1383 24.7777ZM31.0948 24.3009L30.7932 23.3474L30.7909 23.3481L31.0948 24.3009ZM32.2438 24.0379L32.3918 25.027L32.3996 25.0257L32.2438 24.0379ZM33.3855 23.8394L33.5819 24.82L33.5936 24.8175L33.3855 23.8394ZM34.008 23.6041L33.4055 22.806L33.4055 22.806L34.008 23.6041ZM33.8223 22.403L33.2013 23.1868L33.2078 23.192L33.8223 22.403ZM31.9549 22.4956L32.5887 23.2691L32.596 23.2631L31.9549 22.4956ZM31.5113 23.1909L31.4826 24.1905L32.2993 24.2139L32.4851 23.4183L31.5113 23.1909ZM29.4066 23.1305L28.4191 22.9724L28.239 24.0974L29.3779 24.1301L29.4066 23.1305ZM29.9668 21.8103L30.7571 22.423L30.76 22.4192L29.9668 21.8103ZM31.1302 20.9066L31.5463 21.8159L31.5497 21.8143L31.1302 20.9066ZM34.1497 20.6096L33.9524 21.59L33.9544 21.5904L34.1497 20.6096ZM35.2874 21.0461L34.762 21.8969L34.7664 21.8996L35.2874 21.0461ZM36.1039 21.8674L35.2482 22.3849L35.2504 22.3885L36.1039 21.8674ZM36.7401 28.6136L36.7925 29.6122L37.7911 29.5599L37.7388 28.5612L36.7401 28.6136ZM34.5911 28.7262L33.5925 28.7785L33.6448 29.7772L34.6434 29.7248L34.5911 28.7262ZM34.5317 27.5932L35.5304 27.5408L35.478 26.5422L34.4794 26.5945L34.5317 27.5932ZM34.4679 27.5965L34.4156 26.5979L33.806 26.6298L33.5558 27.1866L34.4679 27.5965ZM33.9767 28.2997L34.6721 29.0184L34.6785 29.012L33.9767 28.2997ZM33.2078 28.7934L33.5828 29.7204L33.5923 29.7165L33.2078 28.7934ZM33.5867 27.168L34.0897 28.0323L34.0991 28.0267L33.5867 27.168ZM34.1593 26.5939L33.2902 26.0993L33.2902 26.0993L34.1593 26.5939ZM34.2915 24.9441L35.2902 24.8918L35.1937 23.0516L33.7034 24.1353L34.2915 24.9441ZM34.0057 25.0871L34.3377 26.0304L34.3464 26.0273L34.355 26.0241L34.0057 25.0871ZM33.6014 25.2096L33.8355 26.1818L33.8464 26.1792L33.8572 26.1764L33.6014 25.2096ZM33.1481 25.3134L33.3379 26.2952L33.3491 26.293L33.3602 26.2906L33.1481 25.3134ZM32.7362 25.3937L32.5432 24.4125L32.5395 24.4132L32.7362 25.3937ZM32.0492 25.6163L32.4906 26.5136L32.0492 25.6163ZM31.6045 25.9864L32.4259 26.5568L32.4326 26.5469L31.6045 25.9864ZM31.8397 27.2169L31.293 28.0542L31.3005 28.0591L31.3081 28.0639L31.8397 27.2169ZM32.0946 28.0104C31.6895 28.0316 31.3628 27.9786 31.096 27.8766L30.382 29.7448C30.9499 29.9619 31.5618 30.041 32.1993 30.0076L32.0946 28.0104ZM31.1028 27.8792C30.8529 27.7816 30.6711 27.6402 30.5315 27.452L28.925 28.6433C29.2982 29.1464 29.7902 29.5138 30.3753 29.7422L31.1028 27.8792ZM30.5382 27.4612C30.4236 27.3029 30.3257 27.0573 30.305 26.6625L28.3077 26.7672C28.3435 27.4505 28.5269 28.0935 28.9183 28.6341L30.5382 27.4612ZM30.305 26.6625C30.2874 26.3269 30.3384 26.1163 30.3999 25.9867L28.593 25.1295C28.3534 25.6344 28.2777 26.195 28.3077 26.7672L30.305 26.6625ZM30.3999 25.9867C30.4808 25.8163 30.5886 25.6874 30.7289 25.5847L29.5477 23.9707C29.1332 24.2741 28.8131 24.6654 28.593 25.1295L30.3999 25.9867ZM30.7289 25.5847C30.9109 25.4515 31.131 25.3389 31.3986 25.2536L30.7909 23.3481C30.3381 23.4926 29.9205 23.6979 29.5477 23.9707L30.7289 25.5847ZM31.3964 25.2543C31.7068 25.1561 32.0382 25.0798 32.3918 25.0269L32.0958 23.049C31.6449 23.1164 31.2103 23.2155 30.7932 23.3474L31.3964 25.2543ZM32.3996 25.0257C32.8786 24.9502 33.2742 24.8816 33.5819 24.82L33.1892 22.8589C32.9197 22.9129 32.5542 22.9766 32.088 23.0502L32.3996 25.0257ZM33.5936 24.8175C33.9227 24.7475 34.3054 24.6325 34.6104 24.4023L33.4055 22.806C33.4417 22.7786 33.451 22.7814 33.4038 22.7992C33.3599 22.8158 33.2872 22.838 33.1775 22.8613L33.5936 24.8175ZM34.6104 24.4023C35.0311 24.0847 35.2073 23.6153 35.1828 23.1478L33.1855 23.2525C33.1834 23.2128 33.1872 23.1306 33.2303 23.0317C33.2751 22.929 33.3428 22.8533 33.4055 22.806L34.6104 24.4023ZM35.1828 23.1478L35.1811 23.1159L33.1838 23.2206L33.1855 23.2525L35.1828 23.1478ZM35.1811 23.1159C35.1515 22.5518 34.9331 22.0007 34.4368 21.6141L33.2078 23.192C33.2034 23.1885 33.1964 23.1821 33.1889 23.1728C33.1815 23.1635 33.1768 23.1552 33.1744 23.1501C33.1695 23.1398 33.1805 23.1566 33.1838 23.2206L35.1811 23.1159ZM34.4434 21.6192C33.971 21.245 33.3977 21.1465 32.8618 21.1746L32.9665 23.1719C33.2038 23.1594 33.2359 23.2142 33.2013 23.1868L34.4434 21.6192ZM32.8618 21.1746C32.3133 21.2034 31.7615 21.3542 31.3139 21.7281L32.596 23.2631C32.6118 23.2499 32.6994 23.1859 32.9665 23.1719L32.8618 21.1746ZM31.3212 21.722C30.9311 22.0416 30.655 22.4605 30.5375 22.9635L32.4851 23.4183C32.4955 23.374 32.5151 23.3294 32.5887 23.2691L31.3212 21.722ZM31.54 22.1913L29.4352 22.1309L29.3779 24.1301L31.4826 24.1905L31.54 22.1913ZM30.394 23.2886C30.4495 22.9415 30.5733 22.6601 30.7571 22.423L29.1765 21.1976C28.7741 21.7166 28.5243 22.3154 28.4191 22.9724L30.394 23.2886ZM30.76 22.4192C30.9437 22.18 31.1963 21.976 31.5463 21.8159L30.7141 19.9972C30.0987 20.2788 29.5758 20.6774 29.1735 21.2014L30.76 22.4192ZM31.5497 21.8143C31.8979 21.6534 32.3378 21.5459 32.8904 21.517L32.7858 19.5197C32.0334 19.5592 31.3347 19.7105 30.7108 19.9988L31.5497 21.8143ZM32.8904 21.517C33.2657 21.4973 33.6188 21.5228 33.9524 21.59L34.3471 19.6293C33.8397 19.5272 33.3184 19.4918 32.7858 19.5197L32.8904 21.517ZM33.9544 21.5904C34.2732 21.6539 34.5387 21.759 34.762 21.8969L35.8128 20.1952C35.3673 19.9201 34.8743 19.7343 34.3451 19.6289L33.9544 21.5904ZM34.7664 21.8996C34.9664 22.0217 35.1242 22.1799 35.2482 22.3849L36.9596 21.3499C36.6709 20.8725 36.2843 20.483 35.8085 20.1926L34.7664 21.8996ZM35.2504 22.3885C35.3523 22.5554 35.434 22.7974 35.4527 23.155L37.45 23.0503C37.4178 22.4363 37.2678 21.8548 36.9574 21.3463L35.2504 22.3885ZM35.4527 23.155L35.7415 28.6659L37.7388 28.5612L37.45 23.0503L35.4527 23.155ZM36.6878 27.615L34.5388 27.7276L34.6434 29.7248L36.7925 29.6122L36.6878 27.615ZM35.5897 28.6739L35.5304 27.5408L33.5331 27.6455L33.5925 28.7785L35.5897 28.6739ZM34.4794 26.5945L34.4156 26.5979L34.5202 28.5952L34.5841 28.5918L34.4794 26.5945ZM33.5558 27.1866C33.4899 27.3332 33.3984 27.4656 33.2748 27.5874L34.6785 29.012C34.9742 28.7206 35.2102 28.3843 35.38 28.0064L33.5558 27.1866ZM33.2813 27.581C33.1718 27.687 33.0247 27.7863 32.8233 27.8702L33.5923 29.7165C33.9964 29.5482 34.3619 29.3185 34.672 29.0184L33.2813 27.581ZM32.8328 27.8664C32.6539 27.9387 32.4135 27.9936 32.0946 28.0104L32.1993 30.0076C32.6889 29.982 33.1558 29.8931 33.5828 29.7204L32.8328 27.8664ZM32.7663 28.4097C33.2328 28.3853 33.6832 28.2688 34.0896 28.0323L33.0837 26.3037C32.9932 26.3563 32.8618 26.402 32.6616 26.4124L32.7663 28.4097ZM34.0991 28.0267C34.4848 27.7966 34.8034 27.4839 35.0284 27.0885L33.2902 26.0993C33.2482 26.1731 33.1851 26.2431 33.0743 26.3092L34.0991 28.0267ZM35.0284 27.0885C35.2628 26.6767 35.36 26.2239 35.3356 25.7588L33.3384 25.8635C33.3441 25.9729 33.3228 26.042 33.2902 26.0993L35.0284 27.0885ZM35.3356 25.7588L35.2902 24.8918L33.2929 24.9964L33.3384 25.8635L35.3356 25.7588ZM33.7034 24.1353C33.7233 24.1209 33.7317 24.1177 33.7213 24.1229C33.7117 24.1277 33.691 24.1372 33.6563 24.1501L34.355 26.0241C34.5217 25.9619 34.7096 25.8766 34.8797 25.7529L33.7034 24.1353ZM33.6737 24.1438C33.5851 24.175 33.4765 24.2083 33.3456 24.2429L33.8572 26.1764C34.0279 26.1312 34.1888 26.0828 34.3377 26.0304L33.6737 24.1438ZM33.3673 24.2374C33.2235 24.272 33.0798 24.3049 32.936 24.3361L33.3602 26.2906C33.5188 26.2562 33.6772 26.22 33.8355 26.1818L33.3673 24.2374ZM32.9582 24.3316C32.806 24.361 32.6677 24.388 32.5432 24.4125L32.9293 26.3748C33.0512 26.3509 33.1874 26.3243 33.3379 26.2952L32.9582 24.3316ZM32.5395 24.4132C32.2105 24.4792 31.8956 24.5774 31.6077 24.7191L32.4906 26.5136C32.5909 26.4643 32.7341 26.414 32.9329 26.3741L32.5395 24.4132ZM31.6077 24.7191C31.2866 24.8771 30.9927 25.1061 30.7764 25.4258L32.4326 26.5469C32.4281 26.5535 32.4261 26.5541 32.432 26.5492C32.4385 26.5437 32.456 26.5307 32.4906 26.5136L31.6077 24.7191ZM30.7831 25.416C30.5317 25.778 30.4483 26.1876 30.4688 26.5793L32.4661 26.4746C32.465 26.4541 32.4678 26.4577 32.4627 26.4779C32.4571 26.5 32.4454 26.5287 32.4259 26.5567L30.7831 25.416ZM30.4688 26.5793C30.4995 27.1642 30.76 27.7063 31.293 28.0542L32.3863 26.3795C32.3916 26.383 32.4031 26.3914 32.4169 26.4062C32.4309 26.4212 32.4432 26.4384 32.4527 26.456C32.4727 26.493 32.4678 26.5077 32.4661 26.4746L30.4688 26.5793ZM31.3081 28.0639C31.7574 28.3459 32.2654 28.436 32.7663 28.4097L32.6616 26.4124C32.4674 26.4226 32.3925 26.3832 32.3712 26.3699L31.3081 28.0639ZM43.5126 23.5221L42.5135 23.5643L42.514 23.5744L43.5126 23.5221ZM43.7602 28.2457L43.8125 29.2443L44.8111 29.192L44.7588 28.1933L43.7602 28.2457ZM41.4941 28.3644L40.4955 28.4168L40.5478 29.4154L41.5464 29.3631L41.4941 28.3644ZM41.0659 20.1938L41.0136 19.1952L40.0149 19.2475L40.0673 20.2462L41.0659 20.1938ZM43.2256 20.0807L44.2242 20.0283L44.1719 19.0297L43.1732 19.082L43.2256 20.0807ZM43.3011 21.5222L42.3025 21.5745L42.3548 22.5732L43.3535 22.5208L43.3011 21.5222ZM43.3969 21.5172L43.4492 22.5158L44.1376 22.4797L44.3488 21.8235L43.3969 21.5172ZM44.2474 20.3418L44.8355 21.1506L44.8402 21.1471L44.2474 20.3418ZM47.2769 20.135L47.7382 19.2477L47.2769 20.135ZM48.3168 21.1473L47.45 21.6461L47.4516 21.6488L48.3168 21.1473ZM49.0264 27.9697L49.0787 28.9683L50.0773 28.916L50.025 27.9174L49.0264 27.9697ZM46.7603 28.0885L45.7617 28.1408L45.814 29.1394L46.8126 29.0871L46.7603 28.0885ZM46.5088 23.2903L45.5098 23.3356L45.5102 23.3427L46.5088 23.2903ZM46.0645 22.1402L45.3621 22.852L45.3666 22.8563L46.0645 22.1402ZM44.1748 22.0098L43.6408 21.1643L43.6353 21.1678L44.1748 22.0098ZM43.6623 22.6128L42.7525 22.1977L42.7503 22.2026L43.6623 22.6128ZM42.514 23.5744L42.7615 28.298L44.7588 28.1933L44.5112 23.4697L42.514 23.5744ZM43.7078 27.2471L41.4418 27.3658L41.5464 29.3631L43.8125 29.2443L43.7078 27.2471ZM42.4927 28.3121L42.0645 20.1415L40.0673 20.2462L40.4955 28.4168L42.4927 28.3121ZM41.1182 21.1925L43.2779 21.0793L43.1732 19.082L41.0136 19.1952L41.1182 21.1925ZM42.2269 20.133L42.3025 21.5745L44.2998 21.4699L44.2242 20.0283L42.2269 20.133ZM43.3535 22.5208L43.4492 22.5158L43.3445 20.5186L43.2488 20.5236L43.3535 22.5208ZM44.3488 21.8235C44.4399 21.5403 44.5963 21.3246 44.8355 21.1506L43.6593 19.533C43.0764 19.9569 42.6657 20.5248 42.4449 21.2109L44.3488 21.8235ZM44.8402 21.1471C45.0658 20.9811 45.3767 20.8626 45.8256 20.8391L45.721 18.8418C44.9571 18.8819 44.2507 19.0976 43.6546 19.5365L44.8402 21.1471ZM45.8256 20.8391C46.2437 20.8172 46.5626 20.8907 46.8157 21.0223L47.7382 19.2477C47.1213 18.9271 46.4378 18.8043 45.721 18.8418L45.8256 20.8391ZM46.8157 21.0223C47.0715 21.1553 47.2815 21.3532 47.45 21.6461L49.1835 20.6486C48.8356 20.044 48.3524 19.567 47.7382 19.2477L46.8157 21.0223ZM47.4516 21.6488C47.6137 21.9285 47.7282 22.3065 47.7551 22.8196L49.7524 22.715C49.7127 21.9586 49.5359 21.2566 49.182 20.6459L47.4516 21.6488ZM47.7551 22.8196L48.0277 28.022L50.025 27.9174L49.7524 22.715L47.7551 22.8196ZM48.974 26.9711L46.708 27.0898L46.8126 29.0871L49.0787 28.9683L48.974 26.9711ZM47.7589 28.0361L47.5075 23.238L45.5102 23.3427L45.7617 28.1408L47.7589 28.0361ZM47.5078 23.2451C47.4773 22.5723 47.2688 21.9174 46.7624 21.424L45.3666 22.8563C45.4074 22.896 45.495 23.008 45.5099 23.3356L47.5078 23.2451ZM46.7669 21.4284C46.2565 20.9247 45.5996 20.7364 44.9207 20.772L45.0254 22.7693C45.2543 22.7573 45.325 22.8153 45.3621 22.8519L46.7669 21.4284ZM44.9207 20.772C44.4684 20.7957 44.0316 20.9175 43.6408 21.1643L44.7088 22.8553C44.7723 22.8152 44.8677 22.7775 45.0254 22.7693L44.9207 20.772ZM43.6353 21.1678C43.2382 21.4223 42.9445 21.777 42.7525 22.1977L44.5721 23.0278C44.6162 22.9312 44.6641 22.884 44.7143 22.8518L43.6353 21.1678ZM42.7503 22.2026C42.5575 22.6313 42.4937 23.0966 42.5135 23.5643L44.5117 23.4798C44.5018 23.245 44.5378 23.1041 44.5743 23.0229L42.7503 22.2026ZM55.1147 27.3039L54.6171 28.1714L54.6243 28.1754L55.1147 27.3039ZM53.8487 25.9461L52.9645 26.4134L52.9678 26.4194L53.8487 25.9461ZM53.6213 21.3014L54.5424 21.6906L54.5433 21.6886L53.6213 21.3014ZM54.7501 19.8394L55.3191 20.6618L55.3207 20.6607L54.7501 19.8394ZM57.5359 19.4587L57.1276 20.3717L57.1403 20.3771L57.5359 19.4587ZM58.3107 19.9942L57.5698 20.6658L57.5755 20.672L57.5812 20.6782L58.3107 19.9942ZM58.782 20.6415L57.8934 21.1003L58.1896 21.674L58.8344 21.6402L58.782 20.6415ZM58.8512 20.6379L58.9035 21.6366L59.9021 21.5842L59.8498 20.5856L58.8512 20.6379ZM58.6365 16.542L58.5842 15.5434L57.5855 15.5957L57.6379 16.5943L58.6365 16.542ZM60.8973 16.4235L61.8959 16.3712L61.8436 15.3725L60.8449 15.4249L60.8973 16.4235ZM61.4682 27.3176L61.5205 28.3163L62.5192 28.2639L62.4668 27.2653L61.4682 27.3176ZM59.234 27.4347L58.2354 27.4871L58.2878 28.4857L59.2864 28.4334L59.234 27.4347ZM59.1655 26.1262L60.1641 26.0738L60.1118 25.0752L59.1131 25.1275L59.1655 26.1262ZM59.0697 26.1312L59.0174 25.1325L58.3826 25.1658L58.1433 25.7547L59.0697 26.1312ZM58.653 26.8304L57.8663 26.2131L57.8655 26.214L58.653 26.8304ZM57.9316 27.4176L57.4586 26.5366L57.4547 26.5387L57.9316 27.4176ZM58.3596 25.507L59.0191 26.2587L59.0205 26.2575L58.3596 25.507ZM58.9004 24.6305L57.9489 24.3227L57.9463 24.3309L58.9004 24.6305ZM58.7727 22.0929L59.689 21.6922L58.7727 22.0929ZM56.2722 21.4025L55.6114 20.652L55.6114 20.652L56.2722 21.4025ZM55.8678 24.7788L54.9456 25.1657L54.9502 25.1765L55.8678 24.7788ZM56.4922 25.5995L55.9009 26.406L55.9071 26.4105L55.9134 26.415L56.4922 25.5995ZM56.7737 26.6957C56.3342 26.7187 55.9532 26.6283 55.6051 26.4324L54.6243 28.1754C55.3167 28.5651 56.0766 28.7349 56.8783 28.6929L56.7737 26.6957ZM55.6122 26.4365C55.2818 26.247 54.9826 25.9436 54.7296 25.4728L52.9678 26.4194C53.3689 27.166 53.9136 27.7678 54.6171 28.1713L55.6122 26.4365ZM54.7328 25.4788C54.4949 25.0286 54.3326 24.4183 54.2901 23.608L52.2929 23.7126C52.3459 24.7251 52.5551 25.6386 52.9646 26.4133L54.7328 25.4788ZM54.2901 23.608C54.2463 22.7717 54.3496 22.147 54.5424 21.6906L52.7001 20.9122C52.3552 21.7285 52.2386 22.6764 52.2929 23.7126L54.2901 23.608ZM54.5433 21.6886C54.7517 21.1923 55.0183 20.8698 55.3191 20.6618L54.1812 19.017C53.5142 19.4784 53.0283 20.1306 52.6993 20.9142L54.5433 21.6886ZM55.3207 20.6607C55.6531 20.4297 56.0165 20.305 56.4323 20.2832L56.3276 18.286C55.5447 18.327 54.8215 18.5722 54.1796 19.0181L55.3207 20.6607ZM56.4323 20.2832C56.7824 20.2649 56.9992 20.3141 57.1276 20.3716L57.9441 18.5458C57.4462 18.3231 56.8925 18.2563 56.3276 18.286L56.4323 20.2832ZM57.1403 20.3771C57.3459 20.4657 57.4799 20.5666 57.5698 20.6658L59.0516 19.3225C58.7415 18.9804 58.3589 18.7243 57.9314 18.5403L57.1403 20.3771ZM57.5812 20.6782C57.7354 20.8426 57.8334 20.984 57.8934 21.1003L59.6706 20.1828C59.509 19.8697 59.2928 19.5796 59.0402 19.3102L57.5812 20.6782ZM58.8344 21.6402L58.9035 21.6366L58.7988 19.6393L58.7297 19.6429L58.8344 21.6402ZM59.8498 20.5856L59.6351 16.4896L57.6379 16.5943L57.8525 20.6903L59.8498 20.5856ZM58.6888 17.5406L60.9496 17.4221L60.8449 15.4249L58.5842 15.5434L58.6888 17.5406ZM59.8986 16.4758L60.4696 27.37L62.4668 27.2653L61.8959 16.3712L59.8986 16.4758ZM61.4159 26.319L59.1817 26.4361L59.2864 28.4334L61.5205 28.3163L61.4159 26.319ZM60.2327 27.3824L60.1641 26.0738L58.1668 26.1785L58.2354 27.4871L60.2327 27.3824ZM59.1131 25.1275L59.0174 25.1325L59.1221 27.1298L59.2178 27.1248L59.1131 25.1275ZM58.1433 25.7547C58.0896 25.8867 58.0022 26.0398 57.8663 26.2131L59.4397 27.4478C59.6704 27.1538 59.8608 26.8407 59.9961 26.5076L58.1433 25.7547ZM57.8655 26.214C57.7842 26.318 57.658 26.4295 57.4586 26.5366L58.4047 28.2987C58.8071 28.0826 59.1618 27.8027 59.4404 27.4468L57.8655 26.214ZM57.4547 26.5387C57.3214 26.611 57.1078 26.6781 56.7737 26.6957L56.8783 28.6929C57.4237 28.6643 57.9472 28.547 58.4086 28.2965L57.4547 26.5387ZM57.502 26.852C58.0588 26.8228 58.5857 26.6389 59.0191 26.2587L57.7001 24.7553C57.6507 24.7986 57.571 24.8456 57.3973 24.8547L57.502 26.852ZM59.0205 26.2575C59.4258 25.9005 59.6942 25.4406 59.8545 24.9301L57.9463 24.3309C57.875 24.558 57.7828 24.6824 57.6987 24.7565L59.0205 26.2575ZM59.8519 24.9383C60.017 24.4278 60.0701 23.8739 60.0398 23.296L58.0426 23.4006C58.0632 23.7944 58.0225 24.0953 57.9489 24.3228L59.8519 24.9383ZM60.0398 23.296C60.0097 22.721 59.9017 22.1788 59.689 21.6922L57.8565 22.4935C57.9508 22.7092 58.0218 23.004 58.0426 23.4006L60.0398 23.296ZM59.689 21.6922C59.4748 21.2026 59.1563 20.7746 58.7087 20.4684L57.5795 22.1191C57.663 22.1762 57.7636 22.281 57.8565 22.4935L59.689 21.6922ZM58.7087 20.4684C58.2378 20.1462 57.6985 20.0223 57.1455 20.0513L57.2502 22.0486C57.4278 22.0393 57.5194 22.0779 57.5795 22.1191L58.7087 20.4684ZM57.1455 20.0513C56.5821 20.0808 56.049 20.2666 55.6114 20.652L56.9331 22.153C56.9849 22.1074 57.069 22.0581 57.2502 22.0486L57.1455 20.0513ZM55.6114 20.652C55.2059 21.009 54.9381 21.4682 54.7808 21.979L56.6922 22.5677C56.7597 22.3484 56.8491 22.227 56.9331 22.153L55.6114 20.652ZM54.7808 21.979C54.6267 22.4792 54.5768 23.0186 54.6063 23.5807L56.6035 23.4761C56.5835 23.0949 56.6213 22.7976 56.6922 22.5677L54.7808 21.979ZM54.6063 23.5807C54.6359 24.1461 54.742 24.6802 54.9456 25.1657L56.7899 24.3919C56.6929 24.1606 56.6237 23.8611 56.6035 23.4761L54.6063 23.5807ZM54.9502 25.1765C55.1612 25.6633 55.4705 26.0905 55.9009 26.406L57.0834 24.793C56.9887 24.7236 56.8817 24.6036 56.7853 24.3811L54.9502 25.1765ZM55.9134 26.415C56.3889 26.7525 56.9385 26.8815 57.502 26.852L57.3973 24.8547C57.216 24.8642 57.1273 24.824 57.071 24.784L55.9134 26.415ZM71.1363 21.4236L72.1349 21.3713L72.0826 20.3726L71.084 20.425L71.1363 21.4236ZM71.2305 23.2216L71.2829 24.2202L72.2815 24.1679L72.2292 23.1692L71.2305 23.2216ZM66.2622 23.4819L65.2636 23.5343L65.3159 24.5329L66.3145 24.4806L66.2622 23.4819ZM66.168 21.684L66.1156 20.6854L65.117 20.7377L65.1694 21.7363L66.168 21.684ZM70.1377 21.4759L70.2319 23.2739L72.2292 23.1692L72.1349 21.3713L70.1377 21.4759ZM71.1782 22.2229L66.2099 22.4833L66.3145 24.4806L71.2829 24.2202L71.1782 22.2229ZM67.2608 23.4296L67.1666 21.6316L65.1694 21.7363L65.2636 23.5343L67.2608 23.4296ZM66.2203 22.6826L71.1886 22.4222L71.084 20.425L66.1156 20.6854L66.2203 22.6826ZM85.5963 23.6315L84.6928 23.2028L84.6914 23.2057L85.5963 23.6315ZM83.8665 25.6371L84.4044 26.48L84.4057 26.4792L83.8665 25.6371ZM78.6638 25.9044L79.1138 25.0114L78.6638 25.9044ZM76.7392 24.0903L75.8838 24.6084L76.7392 24.0903ZM76.4216 18.0315L77.3265 18.4573L76.4216 18.0315ZM78.1464 16.0316L78.6844 16.8745L78.6873 16.8727L78.1464 16.0316ZM83.3488 15.7589L82.8987 16.652L82.9036 16.6544L83.3488 15.7589ZM85.2785 17.5674L84.4231 18.0854L84.4248 18.0882L85.2785 17.5674ZM83.3299 18.7576L82.433 19.1999L82.4355 19.2049L83.3299 18.7576ZM82.3041 17.6059L81.7988 18.4689L82.3041 17.6059ZM79.389 17.7587L79.9818 18.5641L79.389 17.7587ZM78.4839 19.0116L77.5477 18.6603L77.5457 18.6656L78.4839 19.0116ZM78.688 22.9054L77.7911 23.3476L77.7936 23.3527L78.688 22.9054ZM79.7191 24.0569L80.2244 23.1939L79.7191 24.0569ZM82.6342 23.9041L82.0414 23.0987L82.6342 23.9041ZM83.534 22.6514L82.5977 22.3001L82.5957 22.3054L83.534 22.6514ZM85.1143 20.6164C85.17 21.6799 85.0125 22.5292 84.6928 23.2028L86.4997 24.0602C86.9934 23.0199 87.1803 21.8241 87.1115 20.5117L85.1143 20.6164ZM84.6914 23.2057C84.3632 23.9033 83.9084 24.4228 83.3272 24.7949L84.4057 26.4792C85.3246 25.8909 86.023 25.0733 86.5011 24.0573L84.6914 23.2057ZM83.3285 24.7941C82.74 25.1697 82.0563 25.3866 81.2525 25.4288L81.3572 27.426C82.4755 27.3674 83.4996 27.0575 84.4044 26.48L83.3285 24.7941ZM81.2525 25.4288C80.4417 25.4713 79.7369 25.3254 79.1138 25.0114L78.2138 26.7974C79.1759 27.2822 80.2318 27.485 81.3572 27.426L81.2525 25.4288ZM79.1138 25.0114C78.5002 24.7022 77.9946 24.2329 77.5945 23.5723L75.8838 24.6084C76.4647 25.5677 77.2422 26.3078 78.2138 26.7974L79.1138 25.0114ZM77.5945 23.5723C77.2084 22.9347 76.9645 22.107 76.9089 21.0464L74.9117 21.1511C74.9802 22.4594 75.2889 23.6261 75.8838 24.6084L77.5945 23.5723ZM76.9089 21.0464C76.8531 19.9817 77.0093 19.1314 77.3265 18.4573L75.5168 17.6058C75.0277 18.6452 74.8429 19.8398 74.9117 21.1511L76.9089 21.0464ZM77.3265 18.4573C77.655 17.7591 78.108 17.2424 78.6844 16.8745L77.6084 15.1886C76.6914 15.7738 75.9946 16.5904 75.5168 17.6058L77.3265 18.4573ZM78.6873 16.8727C79.2741 16.4953 79.9598 16.2765 80.7707 16.234L80.666 14.2367C79.5406 14.2957 78.5117 14.6077 77.6055 15.1905L78.6873 16.8727ZM80.7707 16.234C81.573 16.192 82.2745 16.3374 82.8987 16.652L83.7988 14.8659C82.8378 14.3817 81.7857 14.1781 80.666 14.2367L80.7707 16.234ZM82.9036 16.6544C83.5186 16.9601 84.0241 17.4265 84.4231 18.0854L86.1338 17.0494C85.5518 16.0883 84.7708 15.3491 83.7939 14.8635L82.9036 16.6544ZM84.4248 18.0882C84.8131 18.7247 85.0585 19.5528 85.1143 20.6164L87.1115 20.5117C87.0428 19.1993 86.7319 18.0296 86.1321 17.0466L84.4248 18.0882ZM84.7763 20.6341C84.7311 19.7707 84.561 18.9836 84.2243 18.3104L82.4355 19.2049C82.6152 19.5643 82.7437 20.063 82.7791 20.7388L84.7763 20.6341ZM84.2268 18.3154C83.8996 17.6518 83.4329 17.108 82.8094 16.743L81.7988 18.4689C82.0337 18.6064 82.2509 18.8305 82.433 19.1998L84.2268 18.3154ZM82.8094 16.743C82.1916 16.3812 81.5003 16.2359 80.7728 16.2741L80.8774 18.2713C81.2635 18.2511 81.5581 18.3279 81.7988 18.4689L82.8094 16.743ZM80.7728 16.2741C80.0453 16.3122 79.3729 16.529 78.7963 16.9533L79.9818 18.5641C80.2064 18.3988 80.4914 18.2916 80.8774 18.2713L80.7728 16.2741ZM78.7963 16.9533C78.2158 17.3805 77.8074 17.9682 77.5477 18.6603L79.4202 19.3629C79.5661 18.9741 79.7611 18.7265 79.9818 18.5641L78.7963 16.9533ZM77.5457 18.6656C77.2865 19.3684 77.2017 20.167 77.2469 21.0287L79.2441 20.924C79.2086 20.2466 79.2828 19.7354 79.4221 19.3576L77.5457 18.6656ZM77.2469 21.0287C77.292 21.8904 77.4598 22.6757 77.7911 23.3476L79.5849 22.4632C79.4069 22.1021 79.2796 21.6014 79.2441 20.924L77.2469 21.0287ZM77.7936 23.3527C78.1242 24.0139 78.5919 24.5556 79.2138 24.9198L80.2244 23.1939C79.9879 23.0554 79.7681 22.8296 79.5824 22.4581L77.7936 23.3527ZM79.2138 24.9198C79.8316 25.2815 80.523 25.4268 81.2504 25.3887L81.1458 23.3914C80.7597 23.4117 80.4651 23.3348 80.2244 23.1939L79.2138 24.9198ZM81.2504 25.3887C81.9779 25.3506 82.6503 25.1338 83.2269 24.7095L82.0414 23.0987C81.8168 23.264 81.5318 23.3712 81.1458 23.3914L81.2504 25.3887ZM83.2269 24.7095C83.8088 24.2812 84.2161 23.6917 84.4722 22.9975L82.5957 22.3054C82.4533 22.6918 82.2607 22.9373 82.0414 23.0987L83.2269 24.7095ZM84.4702 23.0028C84.7347 22.2981 84.8216 21.4974 84.7763 20.6341L82.7791 20.7388C82.8145 21.4145 82.7389 21.9239 82.5977 22.3001L84.4702 23.0028ZM98.2471 17.1971L99.2071 17.4773L99.6018 16.1247L98.1948 16.1985L98.2471 17.1971ZM95.8188 25.5174L95.8711 26.516L96.5799 26.4789L96.7787 25.7976L95.8188 25.5174ZM93.2655 25.6512L92.3401 26.0302L92.609 26.687L93.3178 26.6498L93.2655 25.6512ZM89.9807 17.6303L89.9284 16.6317L88.5214 16.7054L89.0553 18.0093L89.9807 17.6303ZM92.3745 17.5049L93.3189 17.1762L93.0721 16.4669L92.3221 16.5062L92.3745 17.5049ZM94.3777 23.262L93.4333 23.5906L93.6801 24.2999L94.4301 24.2606L94.3777 23.262ZM94.4629 23.2575L94.5152 24.2561L95.2658 24.2168L95.4367 23.4848L94.4629 23.2575ZM95.848 17.3228L95.7957 16.3242L95.0451 16.3635L94.8742 17.0955L95.848 17.3228ZM97.2871 16.9169L94.8588 25.2372L96.7787 25.7976L99.2071 17.4773L97.2871 16.9169ZM95.7664 24.5188L93.2131 24.6526L93.3178 26.6498L95.8711 26.516L95.7664 24.5188ZM94.1909 25.2722L90.9062 17.2513L89.0553 18.0093L92.3401 26.0302L94.1909 25.2722ZM90.0331 18.6289L92.4268 18.5035L92.3221 16.5062L89.9284 16.6317L90.0331 18.6289ZM91.43 17.8335L93.4333 23.5906L95.3222 22.9333L93.3189 17.1762L91.43 17.8335ZM94.4301 24.2606L94.5152 24.2561L94.4105 22.2589L94.3254 22.2633L94.4301 24.2606ZM95.4367 23.4848L96.8219 17.5501L94.8742 17.0955L93.489 23.0302L95.4367 23.4848ZM95.9004 18.3215L98.2994 18.1957L98.1948 16.1985L95.7957 16.3242L95.9004 18.3215ZM104.102 24.7312L103.653 25.6246L103.659 25.6276L104.102 24.7312ZM102.632 23.3468L101.769 23.8518L101.77 23.8538L102.632 23.3468ZM102.399 18.8944L101.487 18.4845L101.487 18.4845L102.399 18.8944ZM103.699 17.3381L103.143 16.5067L103.141 16.5082L103.699 17.3381ZM107.286 16.8781L106.985 17.8318L106.994 17.8345L107.286 16.8781ZM108.55 17.5853L107.885 18.3318L107.888 18.3352L108.55 17.5853ZM109.437 18.8403L108.52 19.2392L108.521 19.2413L109.437 18.8403ZM109.858 21.2665L109.91 22.2652L110.909 22.2128L110.856 21.2142L109.858 21.2665ZM102.958 21.6281L101.96 21.6805L102.012 22.6791L103.011 22.6268L102.958 21.6281ZM102.885 20.2238L102.832 19.2252L101.834 19.2775L101.886 20.2761L102.885 20.2238ZM107.651 19.974L107.703 20.9726L108.702 20.9203L108.65 19.9217L107.651 19.974ZM107.393 19.1181L106.548 19.6539L106.548 19.6539L107.393 19.1181ZM106.771 18.5586L106.312 19.4467L106.319 19.4506L106.327 19.4543L106.771 18.5586ZM104.99 18.6733L105.546 19.5049L105.549 19.5027L104.99 18.6733ZM104.407 19.3386L105.301 19.786L105.303 19.7809L104.407 19.3386ZM104.224 20.2283L103.225 20.2697L103.225 20.2806L104.224 20.2283ZM104.572 22.5997L103.705 23.0973L103.709 23.1055L104.572 22.5997ZM106.934 23.292L106.564 22.363L106.934 23.292ZM107.455 22.9447L106.728 22.2576L106.728 22.2576L107.455 22.9447ZM107.768 22.4055L107.781 21.4056L107.041 21.3956L106.815 22.1003L107.768 22.4055ZM109.871 22.434L110.859 22.5892L111.038 21.4497L109.884 21.4341L109.871 22.434ZM109.286 23.7875L108.5 23.1682L108.5 23.1688L109.286 23.7875ZM108.065 24.7262L108.485 25.634L108.488 25.6325L108.065 24.7262ZM106.247 24.1295C105.542 24.1665 104.987 24.0531 104.546 23.8348L103.659 25.6276C104.466 26.0267 105.376 26.1779 106.352 26.1268L106.247 24.1295ZM104.552 23.8379C104.106 23.6137 103.758 23.288 103.494 22.8398L101.77 23.8538C102.225 24.6267 102.857 25.224 103.653 25.6245L104.552 23.8379ZM103.495 22.8417C103.232 22.3919 103.063 21.8164 103.024 21.0806L101.027 21.1853C101.079 22.173 101.314 23.0734 101.769 23.8518L103.495 22.8417ZM103.024 21.0806C102.987 20.3708 103.094 19.7875 103.311 19.3044L101.487 18.4845C101.118 19.3051 100.976 20.2142 101.027 21.1853L103.024 21.0806ZM103.311 19.3044C103.53 18.8167 103.844 18.4458 104.257 18.168L103.141 16.5082C102.407 17.0017 101.854 17.6684 101.487 18.4845L103.311 19.3044ZM104.255 18.1694C104.66 17.8984 105.169 17.729 105.819 17.695L105.715 15.6977C104.762 15.7476 103.892 16.0061 103.143 16.5068L104.255 18.1694ZM105.819 17.695C106.249 17.6724 106.635 17.7213 106.985 17.8318L107.587 15.9244C106.99 15.736 106.363 15.6637 105.715 15.6977L105.819 17.695ZM106.994 17.8345C107.335 17.9388 107.629 18.104 107.885 18.3318L109.215 16.8387C108.74 16.415 108.19 16.1087 107.578 15.9217L106.994 17.8345ZM107.888 18.3352C108.134 18.5518 108.348 18.8446 108.52 19.2392L110.354 18.4413C110.081 17.8138 109.704 17.2699 109.211 16.8353L107.888 18.3352ZM108.521 19.2413C108.684 19.6143 108.795 20.0921 108.826 20.6965L110.824 20.5918C110.782 19.8061 110.634 19.0813 110.353 18.4393L108.521 19.2413ZM108.826 20.6965L108.859 21.3189L110.856 21.2142L110.824 20.5918L108.826 20.6965ZM109.805 20.2679L102.906 20.6295L103.011 22.6268L109.91 22.2652L109.805 20.2679ZM103.957 21.5758L103.883 20.1715L101.886 20.2761L101.96 21.6805L103.957 21.5758ZM102.937 21.2224L107.703 20.9726L107.599 18.9754L102.832 19.2252L102.937 21.2224ZM108.65 19.9217C108.625 19.4462 108.496 18.9898 108.237 18.5823L106.548 19.6539C106.6 19.7351 106.643 19.8493 106.652 20.0264L108.65 19.9217ZM108.237 18.5823C107.984 18.1837 107.639 17.8727 107.216 17.6629L106.327 19.4543C106.422 19.5018 106.491 19.5638 106.548 19.6539L108.237 18.5823ZM107.231 17.6704C106.795 17.4451 106.321 17.3621 105.84 17.3873L105.945 19.3846C106.124 19.3752 106.236 19.4073 106.312 19.4467L107.231 17.6704ZM105.84 17.3873C105.336 17.4138 104.856 17.5583 104.432 17.8439L105.549 19.5027C105.64 19.4412 105.762 19.3942 105.945 19.3846L105.84 17.3873ZM104.435 17.8417C104.035 18.1088 103.722 18.4648 103.51 18.8963L105.303 19.7809C105.361 19.6649 105.437 19.5773 105.546 19.5049L104.435 17.8417ZM103.512 18.8912C103.296 19.3234 103.205 19.7897 103.225 20.2697L105.223 20.1869C105.216 20.0211 105.247 19.8943 105.301 19.786L103.512 18.8912ZM103.225 20.2806L103.295 21.6158L105.292 21.5111L105.222 20.176L103.225 20.2806ZM103.295 21.6158C103.323 22.142 103.447 22.6474 103.705 23.0973L105.439 22.1021C105.369 21.9789 105.307 21.7935 105.292 21.5111L103.295 21.6158ZM103.709 23.1055C103.97 23.5501 104.336 23.9028 104.798 24.138L105.705 22.3557C105.597 22.3007 105.51 22.2219 105.435 22.0938L103.709 23.1055ZM104.798 24.138C105.266 24.3765 105.779 24.4606 106.3 24.4333L106.196 22.436C105.958 22.4484 105.807 22.4074 105.705 22.3557L104.798 24.138ZM106.3 24.4333C106.646 24.4151 106.984 24.3485 107.304 24.221L106.564 22.363C106.473 22.3993 106.353 22.4277 106.196 22.436L106.3 24.4333ZM107.304 24.221C107.634 24.0893 107.933 23.8946 108.181 23.6317L106.728 22.2576C106.693 22.294 106.645 22.3309 106.564 22.363L107.304 24.221ZM108.181 23.6317C108.433 23.3658 108.61 23.053 108.72 22.7108L106.815 22.1003C106.791 22.1776 106.76 22.2242 106.728 22.2576L108.181 23.6317ZM107.754 23.4055L109.857 23.4339L109.884 21.4341L107.781 21.4056L107.754 23.4055ZM108.883 22.2788C108.829 22.6236 108.701 22.9138 108.5 23.1682L110.071 24.4068C110.49 23.8748 110.753 23.2627 110.859 22.5892L108.883 22.2788ZM108.5 23.1688C108.302 23.4204 108.026 23.6412 107.643 23.82L108.488 25.6325C109.118 25.3386 109.656 24.9336 110.071 24.4063L108.5 23.1688ZM107.646 23.8185C107.28 23.9875 106.821 24.0995 106.247 24.1295L106.352 26.1268C107.126 26.0862 107.844 25.9302 108.485 25.634L107.646 23.8185ZM114.516 24.5375L113.517 24.5899L113.57 25.5885L114.568 25.5362L114.516 24.5375ZM114.088 16.3669L114.035 15.3683L113.037 15.4206L113.089 16.4193L114.088 16.3669ZM116.285 16.2518L117.283 16.1995L117.231 15.2008L116.232 15.2532L116.285 16.2518ZM116.359 17.6774L115.361 17.7297L115.413 18.7284L116.412 18.676L116.359 17.6774ZM116.444 17.6729L116.497 18.6716L117.244 18.6324L117.417 17.9041L116.444 17.6729ZM117.134 16.4846L117.769 17.2573L117.774 17.2532L117.134 16.4846ZM118.695 16.0295L118.75 15.031L118.75 15.031L118.695 16.0295ZM119.043 16.0699L120.042 16.0175L120.001 15.2378L119.235 15.0884L119.043 16.0699ZM119.149 18.0806L118.912 19.0522L120.218 19.3705L120.147 18.0283L119.149 18.0806ZM117.303 18.2734L117.829 19.124L117.832 19.1215L117.303 18.2734ZM116.717 18.9015L115.833 18.4343L115.828 18.4435L116.717 18.9015ZM116.782 24.4188L116.834 25.4174L117.833 25.3651L117.781 24.3664L116.782 24.4188ZM115.515 24.4852L115.086 16.3146L113.089 16.4193L113.517 24.5899L115.515 24.4852ZM114.14 17.3656L116.337 17.2504L116.232 15.2532L114.035 15.3683L114.14 17.3656ZM115.286 16.3041L115.361 17.7297L117.358 17.6251L117.283 16.1995L115.286 16.3041ZM116.412 18.676L116.497 18.6716L116.392 16.6743L116.307 16.6788L116.412 18.676ZM117.417 17.9041C117.5 17.5556 117.634 17.3685 117.769 17.2573L116.5 15.7119C115.96 16.1553 115.633 16.7604 115.472 17.4417L117.417 17.9041ZM117.774 17.2532C117.938 17.1167 118.127 17.0393 118.379 17.0261L118.274 15.0288C117.611 15.0635 117.005 15.2909 116.495 15.7161L117.774 17.2532ZM118.379 17.0261C118.451 17.0223 118.538 17.0223 118.639 17.0279L118.75 15.031C118.588 15.022 118.429 15.0207 118.274 15.0288L118.379 17.0261ZM118.639 17.0279C118.738 17.0334 118.807 17.0426 118.852 17.0514L119.235 15.0884C119.079 15.0579 118.915 15.0402 118.75 15.031L118.639 17.0279ZM118.045 16.1222L118.15 18.1329L120.147 18.0283L120.042 16.0175L118.045 16.1222ZM119.386 17.109C119.202 17.0643 118.993 17.0384 118.782 17.0217L118.624 19.0155C118.792 19.0288 118.88 19.0442 118.912 19.0522L119.386 17.109ZM118.782 17.0217C118.558 17.004 118.34 16.9989 118.133 17.0098L118.237 19.0071C118.342 19.0016 118.47 19.0033 118.624 19.0155L118.782 17.0217ZM118.133 17.0098C117.649 17.0351 117.187 17.1666 116.773 17.4252L117.832 19.1215C117.928 19.0619 118.054 19.0167 118.237 19.0071L118.133 17.0098ZM116.777 17.4227C116.373 17.6725 116.054 18.0148 115.833 18.4344L117.601 19.3686C117.658 19.2615 117.73 19.185 117.829 19.124L116.777 17.4227ZM115.828 18.4435C115.601 18.8834 115.516 19.3614 115.541 19.8485L117.538 19.7439C117.529 19.5643 117.561 19.4459 117.606 19.3594L115.828 18.4435ZM115.541 19.8485L115.783 24.4711L117.781 24.3664L117.538 19.7439L115.541 19.8485ZM116.73 23.4201L114.464 23.5389L114.568 25.5362L116.834 25.4174L116.73 23.4201Z" fill="#1C65F3" fill-opacity="0.25"/>
<path d="M14.8888 32.7458L14.8365 31.7472L13.8379 31.7995L13.8902 32.7981L14.8888 32.7458ZM119.89 27.2429L120.889 27.1906L120.837 26.1919L119.838 26.2443L119.89 27.2429ZM119.944 28.2642L119.996 29.2629L120.995 29.2105L120.943 28.2119L119.944 28.2642ZM14.9423 33.7671L13.9437 33.8195L13.9961 34.8181L14.9947 34.7658L14.9423 33.7671ZM14.9412 33.7444L119.943 28.2415L119.838 26.2443L14.8365 31.7472L14.9412 33.7444ZM118.892 27.2952L118.945 28.3166L120.943 28.2119L120.889 27.1906L118.892 27.2952ZM119.892 27.2656L14.89 32.7685L14.9947 34.7658L119.996 29.2629L119.892 27.2656ZM15.941 33.7148L15.8874 32.6935L13.8902 32.7981L13.9437 33.8195L15.941 33.7148Z" fill="#1C65F3" fill-opacity="0.25"/>
<rect x="9.5" y="5.73853" width="115.797" height="32.5229" rx="1.5" stroke="#1C65F3"/>
<rect x="9.5" y="5.73853" width="115.797" height="32.5229" rx="1.5" stroke="black" stroke-opacity="0.2"/>
<rect x="5" y="1.23853" width="124.797" height="41.5229" rx="1" stroke="#1C65F3" stroke-width="2" shape-rendering="crispEdges"/>
<rect x="5" y="1.23853" width="124.797" height="41.5229" rx="1" stroke="black" stroke-opacity="0.2" stroke-width="2" shape-rendering="crispEdges"/>
</g>
<defs>
<filter id="filter0_d_67_15" x="0" y="0.238525" width="134.797" height="51.5229" filterUnits="userSpaceOnUse" color-interpolation-filters="sRGB">
<feFlood flood-opacity="0" result="BackgroundImageFix"/>
<feColorMatrix in="SourceAlpha" type="matrix" values="0 0 0 0 0 0 0 0 0 0 0 0 0 0 0 0 0 0 127 0" result="hardAlpha"/>
<feOffset dy="4"/>
<feGaussianBlur stdDeviation="2"/>
<feComposite in2="hardAlpha" operator="out"/>
<feColorMatrix type="matrix" values="0 0 0 0 0 0 0 0 0 0 0 0 0 0 0 0 0 0 0.25 0"/>
<feBlend mode="normal" in2="BackgroundImageFix" result="effect1_dropShadow_67_15"/>
<feBlend mode="normal" in="SourceGraphic" in2="effect1_dropShadow_67_15" result="shape"/>
</filter>
</defs>
</svg>
